# xmcd
#
# Track frame offsets:
#	150
#	11215
#	29303
#	41107
#	55190
#	68794
#	84511
#	100624
#	116055
#	129289
#	143643
#	154247
#	169581
#	179386
#	195594
#	211423
#	221324
#	237073
#	253961
#	265394
#
# Disc length: 3693 seconds
#
# Revision: 0
# Processed by: cddbd v1.5.2PL0 Copyright (c) Steve Scherf et al.
# Submitted via: EasyCDDAExtractor 2011.0.0.0
#
DISCID=190e6b14
DTITLE=Irwin Goodman - Vain Elämää cd08 Kootut Levytykset 1965 - 1990
DYEAR=1900
DGENRE=
TTITLE0=Istuva Härkä
TTITLE1=Jesse James
TTITLE2=Rummut puhuvat rumia
TTITLE3=Yksinäinen ratsastaja
TTITLE4=Poppamies Vuotavanokka
TTITLE5=Inkkarivanhus
TTITLE6=Kenraali Custer
TTITLE7=Ei Buffalo Billiä ampua saa
TTITLE8=Tervaa ja höyheniä
TTITLE9=Istuva Härkä tupakkalakossa
TTITLE10=Jippi-jii jippi-jai
TTITLE11=Ei villiä länttä enää ole
TTITLE12=Vetojenkka
TTITLE13=Juhlavalssi
TTITLE14=Kun ei rahat riitä
TTITLE15=Työmiehen lauantai
TTITLE16=Ryysyranta
TTITLE17=Hauskaa joulua kaikille
TTITLE18=Ai ai ai ja voi voi voi
TTITLE19=Vahdinvaihto Korvatunturilla
EXTD=
EXTT0=
EXTT1=
EXTT2=
EXTT3=
EXTT4=
EXTT5=
EXTT6=
EXTT7=
EXTT8=
EXTT9=
EXTT10=
EXTT11=
EXTT12=
EXTT13=
EXTT14=
EXTT15=
EXTT16=
EXTT17=
EXTT18=
EXTT19=
PLAYORDER=
